<svg xmlns="http://www.w3.org/2000/svg" width="805" height="600"><rect width="805" height="600" x="0" y="0" fill="#FFFFFF" id="backgorund"/><g transform="translate(20,20)" id="viz"><g id="nodes"><g transform="translate(383.5,281)"><path id="p_943.5" d="M-5.143516556418883e-14,280A280,280,0,1,1,5.143516556418883e-14,-280A280,280,0,1,1,-5.143516556418883e-14,280Z" fill="none" stroke="#ccc"/></g><g transform="translate(291.3606245935835,281)" id="Western Australia"><path id="p_757.2424506005945" d="M-3.414593748587269e-14,185.88182600701103A185.88182600701103,185.88182600701103,0,1,1,3.414593748587269e-14,-185.88182600701103A185.88182600701103,185.88182600701103,0,1,1,-3.414593748587269e-14,185.88182600701103Z" fill="#1f77b4" stroke="none"/></g><g transform="translate(570.3712253002973,281)" id="Victoria"><path id="p_941.5212014134275" d="M-1.6743978973395404e-14,91.14997611313028A91.14997611313028,91.14997611313028,0,1,1,1.6743978973395404e-14,-91.14997611313028A91.14997611313028,91.14997611313028,0,1,1,-1.6743978973395404e-14,91.14997611313028Z" fill="#1f77b4" stroke="none"/></g><g transform="translate(503.2276945091696,432.55108295441346)" id="Queensland"><path id="p_1007.4088169239564" d="M-1.3341921802063811e-14,72.63003946037327A72.63003946037327,72.63003946037327,0,1,1,1.3341921802063811e-14,-72.63003946037327A72.63003946037327,72.63003946037327,0,1,1,-1.3341921802063811e-14,72.63003946037327Z" fill="#1f77b4" stroke="none"/></g><g transform="translate(499.19974447269476,144.5506603580815)" id="Other"><path id="p_703.5170555728631" d="M-1.1162652648930269e-14,60.76665074208685A60.76665074208685,60.76665074208685,0,1,1,1.1162652648930269e-14,-60.76665074208685A60.76665074208685,60.76665074208685,0,1,1,-1.1162652648930269e-14,60.76665074208685Z" fill="#1f77b4" stroke="none"/></g><g transform="translate(413.2106275694947,88.71548023081607)" id="New South Wales"><path id="p_540.7072187652475" d="M-7.307671531460324e-15,39.78111096493677A39.78111096493677,39.78111096493677,0,1,1,7.307671531460324e-15,-39.78111096493677A39.78111096493677,39.78111096493677,0,1,1,-7.307671531460324e-15,39.78111096493677Z" fill="#1f77b4" stroke="none"/></g></g><g id="labels"><g transform="translate(291.3606245935835,281)"><text text-anchor="middle" dominant-baseline="text-before-edge" transform="translate(0,-5.5)"><tspan x="0" y="0" dy="0" style="font-family: Arial, sans-serif; font-size: 10px; fill: black; font-weight: bold;">Western Australia</tspan></text></g><g transform="translate(570.3712253002973,281)"><text text-anchor="middle" dominant-baseline="text-before-edge" transform="translate(0,-5.5)"><tspan x="0" y="0" dy="0" style="font-family: Arial, sans-serif; font-size: 10px; fill: black; font-weight: bold;">Victoria</tspan></text></g><g transform="translate(503.2276945091696,432.55108295441346)"><text text-anchor="middle" dominant-baseline="text-before-edge" transform="translate(0,-5.5)"><tspan x="0" y="0" dy="0" style="font-family: Arial, sans-serif; font-size: 10px; fill: black; font-weight: bold;">Queensland</tspan></text></g><g transform="translate(499.19974447269476,144.5506603580815)"><text text-anchor="middle" dominant-baseline="text-before-edge" transform="translate(0,-5.5)"><tspan x="0" y="0" dy="0" style="font-family: Arial, sans-serif; font-size: 10px; fill: black; font-weight: bold;">Other</tspan></text></g><g transform="translate(413.2106275694947,88.71548023081607)"><text text-anchor="middle" dominant-baseline="text-before-edge" transform="translate(0,-5.5)"><tspan x="0" y="0" dy="0" style="font-family: Arial, sans-serif; font-size: 10px; fill: black; font-weight: bold;">New South Wales</tspan></text></g></g></g></svg>