<?xml version="1.0" encoding="utf-8"?>
<!-- Generator: Adobe Illustrator 27.2.0, SVG Export Plug-In . SVG Version: 6.00 Build 0)  -->
<svg version="1.1" id="Layer_1" xmlns="http://www.w3.org/2000/svg" xmlns:xlink="http://www.w3.org/1999/xlink" x="0px" y="0px"
	 viewBox="0 0 805 600" style="enable-background:new 0 0 805 600;" xml:space="preserve">
<style type="text/css">
	.st0{fill:#FFFFFF;}
	.st1{fill:#F0F9E8;}
	.st2{fill:none;}
	.st3{enable-background:new    ;}
	.st4{font-family:'Arial-BoldMT';}
	.st5{font-size:15.0637px;}
	.st6{fill:#BAE4BC;}
	.st7{fill:#7BCCC4;}
	.st8{fill:#1F77B4;}
	.st9{fill:#0868AC;}
	.st10{font-size:24px;}
	.st11{fill:#5A5A5A;}
	.st12{font-family:'ArialMT';}
	.st13{font-size:12px;}
	.st14{font-family:'MyriadPro-Regular';}
	.st15{font-size:17px;}
</style>
<rect id="backgorund" x="98.8" y="87.7" class="st0" width="606.3" height="451.9"/>
<rect id="path0" x="107.8" y="96.7" class="st1" width="115.2" height="64"/>
<rect x="107.8" y="96.7" class="st2" width="115.2" height="64"/>
<text transform="matrix(1 0 0 1 110.1592 115.6037)" class="st3"><tspan x="0" y="0" class="st4 st5">New South </tspan><tspan x="0" y="18.1" class="st4 st5">Wales</tspan><tspan x="0" y="36.2" class="st4 st5">12</tspan></text>
<rect id="path1" x="107.8" y="162.2" class="st6" width="115.2" height="150.6"/>
<rect x="107.8" y="162.2" class="st2" width="115.2" height="150.6"/>
<text transform="matrix(1 0 0 1 112.4034 185.1643)" class="st3"><tspan x="0" y="0" class="st4 st5">Other States</tspan><tspan x="0" y="18.1" class="st4 st5">28</tspan></text>
<rect id="path2" x="107.8" y="314.4" class="st7" width="115.2" height="216.2"/>
<rect x="107.8" y="314.4" class="st2" width="115.2" height="216.2"/>
<text transform="matrix(1 0 0 1 114.0293 337.8185)" class="st3"><tspan x="0" y="0" class="st4 st5">Queensland</tspan><tspan x="0" y="18.1" class="st4 st5">40</tspan></text>
<rect id="path3" x="224.6" y="96.7" class="st8" width="471.5" height="82.9"/>
<rect x="224.6" y="96.7" class="st2" width="471.5" height="82.9"/>
<text transform="matrix(1 0 0 1 233.7559 122.2953)" class="st3"><tspan x="0" y="0" class="st4 st5">Victoria</tspan><tspan x="0" y="18.1" class="st4 st5">62</tspan></text>
<rect id="path4" x="224.6" y="181.1" class="st9" width="471.5" height="349.5"/>
<rect x="224.6" y="181.1" class="st9" width="471.5" height="349.5"/>
<text transform="matrix(1 0 0 1 234.6194 212.7973)" class="st0 st4 st10">Western Australia</text>
<text transform="matrix(1 0 0 1 235.9696 240.4568)" class="st0 st4 st10">262</text>
<text transform="matrix(1 0 0 1 343.7378 550.3099)" class="st11 st12 st13">Visas granted to Irish Citizens under the General Practitioners and</text>
<text transform="matrix(1 0 0 1 330.7615 564.5746)"><tspan x="0" y="0" class="st11 st12 st13">Resident Medical Officers occupation, between June 2021 and 2022.</tspan><tspan x="366.2" y="0" class="st11 st14 st13"> </tspan></text>
<text transform="matrix(1 0 0 1 330.7615 564.5746)"><tspan x="0" y="0" class="st11 st12 st13">Resident Medical Officers occupation, between June 2021 and 2022.</tspan><tspan x="366.2" y="0" class="st11 st14 st13"> </tspan></text>
<text transform="matrix(1 0 0 1 373.1442 583.5631)" class="st11 st12 st13">Source: Australian Government, Department of Home Affairs</text>
<text transform="matrix(1 0 0 1 110.4009 39.4842)"><tspan x="0" y="0" class="st12 st10">A Streamlined Journey</tspan><tspan x="0" y="20.4" class="st12 st15">Western Australia’s centralized recruitment portal for Resident Medical </tspan><tspan x="0" y="40.8" class="st12 st15">Officers makes it the most popular destination in the country for Irish doctors.</tspan></text>
</svg>
