<svg xmlns="http://www.w3.org/2000/svg" xmlns:xlink="http://www.w3.org/1999/xlink" id="exportSvg" width="600" height="400"><defs/><rect width="600" height="400" transform="translate(0, 0)" fill="rgb(255, 255, 255)" style="fill: rgb(255, 255, 255);"/><g><g id="__svelte-dw-svg" clip-path="url(#rect-mask-jlHMjc4KVbJdmEDUbThhc)"><clipPath id="rect-mask-jlHMjc4KVbJdmEDUbThhc"><rect x="0" y="0" width="600" height="400"/></clipPath><g id="outer-container-svg dw-chart-styles-svg datawrapper-ySCjb-cadg66-svg svelte-crzbxb-svg static-svg" clip-path="url(#rect-mask-3HxKzCFTjUYA0YlOXsnSe)"><clipPath id="rect-mask-3HxKzCFTjUYA0YlOXsnSe"><rect x="0" y="0" width="600" height="400"/></clipPath><g id="header-svg"><text transform="translate(0, 0)"><tspan fill="rgb(0,0,0)" x="0" y="22" style="font-family: Roboto; font-weight: 700; font-stretch: 100%; font-size: 22px;">Young Irish Doctors Down Under</tspan></text><text transform="translate(0, 35)"><tspan fill="rgb(24,24,24)" x="0" y="14" style="font-family: Roboto; font-weight: 400; font-stretch: 100%; font-size: 14px;">The number of skilled visas granted to doctors* who are Irish citizens is on the rise, and young</tspan><tspan fill="rgb(24,24,24)" x="0" y="31" style="font-family: Roboto; font-weight: 400; font-stretch: 100%; font-size: 14px;">people make up the majority of applicants.</tspan></text></g><g id="chart-svg"><g id="svg-main-svg" clip-path="url(#rect-mask-lVIKp_WwqZw753DgDTgOe)" transform="translate(0, 79)"><clipPath id="rect-mask-lVIKp_WwqZw753DgDTgOe"><rect x="0" y="0" width="600" height="269"/></clipPath><g id="group-svg" transform="translate(26.47656, 27)"><g id="y-grid-lines-svg grid-y-svg datawrapper-ySCjb-1fn7900-svg"><line x1="0" x2="559.0510692596436" y1="0" y2="0" transform="translate(0, 160.04462)" style="fill: none; stroke-width: 1; stroke-linejoin: miter; stroke-linecap: butt; stroke: rgb(231, 231, 231);"/><line x1="0" x2="559.0510692596436" y1="0" y2="0" transform="translate(0, 103.08924)" style="fill: none; stroke-width: 1; stroke-linejoin: miter; stroke-linecap: butt; stroke: rgb(231, 231, 231);"/><line x1="0" x2="559.0510692596436" y1="0" y2="0" transform="translate(0, 46.13386)" style="fill: none; stroke-width: 1; stroke-linejoin: miter; stroke-linecap: butt; stroke: rgb(231, 231, 231);"/></g><path d="M9.654607321154396,217L43.388473234737816,217L77.12233914832123,217L110.85620506190466,217L144.59007097548806,217L178.32393688907146,217L212.0578028026549,217L245.7916687162383,217L279.5255346298217,217L313.2594005434051,217L346.9932664569886,217L380.72713237057195,217L414.46099828415544,217L448.1948641977388,217L481.9287301113222,217L515.6625960249056,217L549.3964619384891,217L549.3964619384891,0L515.6625960249056,18.79527559055117L481.9287301113222,64.35958005249343L448.1948641977388,92.83727034120734L414.46099828415544,91.12860892388451L380.72713237057195,106.50656167979002L346.9932664569886,136.12335958005247L313.2594005434051,162.3228346456693L279.5255346298217,172.00524934383202L245.7916687162383,171.43569553805776L212.0578028026549,155.48818897637796L178.32393688907146,169.15748031496062L144.59007097548806,159.4750656167979L110.85620506190466,179.9790026246719L77.12233914832123,177.70078740157481L43.388473234737816,195.9265091863517L9.654607321154396,204.4698162729659Z" id="all_visas" style="fill: rgb(24, 161, 205); opacity: 0.5;"/><path d="M9.654607321154396,217L43.388473234737816,217L77.12233914832123,217L110.85620506190466,217L144.59007097548806,217L178.32393688907146,217L212.0578028026549,217L245.7916687162383,217L279.5255346298217,217L313.2594005434051,217L346.9932664569886,217L380.72713237057195,217L414.46099828415544,217L448.1948641977388,217L481.9287301113222,217L515.6625960249056,217L549.3964619384891,217L549.3964619384891,9.11286089238845L515.6625960249056,31.32545931758531L481.9287301113222,71.76377952755905L448.1948641977388,102.51968503937009L414.46099828415544,97.96325459317586L380.72713237057195,113.91076115485563L346.9932664569886,141.249343832021L313.2594005434051,170.86614173228344L279.5255346298217,175.4225721784777L245.7916687162383,176.56167979002623L212.0578028026549,162.3228346456693L178.32393688907146,176.56167979002623L144.59007097548806,165.74015748031496L110.85620506190466,185.6745406824147L77.12233914832123,187.38320209973753L43.388473234737816,202.19160104986875L9.654607321154396,209.0262467191601Z" id="under_29" style="fill: rgb(0, 82, 122); opacity: 0.5;"/><g id="x-tick-lines-svg grid-x-svg datawrapper-ySCjb-1jidnk8-svg" transform="translate(0, 217)"><line x1="0" x2="0" y1="5" y2="0" transform="translate(9.65461, 0)" style="fill: none; stroke-width: 1; stroke-linejoin: miter; stroke-linecap: butt; stroke: rgb(24, 24, 24);"/><line x1="0" x2="0" y1="5" y2="0" transform="translate(77.12234, 0)" style="fill: none; stroke-width: 1; stroke-linejoin: miter; stroke-linecap: butt; stroke: rgb(24, 24, 24);"/><line x1="0" x2="0" y1="5" y2="0" transform="translate(144.59007, 0)" style="fill: none; stroke-width: 1; stroke-linejoin: miter; stroke-linecap: butt; stroke: rgb(24, 24, 24);"/><line x1="0" x2="0" y1="5" y2="0" transform="translate(212.0578, 0)" style="fill: none; stroke-width: 1; stroke-linejoin: miter; stroke-linecap: butt; stroke: rgb(24, 24, 24);"/><line x1="0" x2="0" y1="5" y2="0" transform="translate(279.52553, 0)" style="fill: none; stroke-width: 1; stroke-linejoin: miter; stroke-linecap: butt; stroke: rgb(24, 24, 24);"/><line x1="0" x2="0" y1="5" y2="0" transform="translate(346.99327, 0)" style="fill: none; stroke-width: 1; stroke-linejoin: miter; stroke-linecap: butt; stroke: rgb(24, 24, 24);"/><line x1="0" x2="0" y1="5" y2="0" transform="translate(414.461, 0)" style="fill: none; stroke-width: 1; stroke-linejoin: miter; stroke-linecap: butt; stroke: rgb(24, 24, 24);"/><line x1="0" x2="0" y1="5" y2="0" transform="translate(481.92873, 0)" style="fill: none; stroke-width: 1; stroke-linejoin: miter; stroke-linecap: butt; stroke: rgb(24, 24, 24);"/><line x1="0" x2="0" y1="5" y2="0" transform="translate(549.39646, 0)" style="fill: none; stroke-width: 1; stroke-linejoin: miter; stroke-linecap: butt; stroke: rgb(24, 24, 24);"/></g><g id="x-tick-labels-svg grid-x-svg text-axis-svg datawrapper-ySCjb-63wp0p-svg" transform="translate(0, 227)"><text transform="translate(9.65461, 12) translate(-22.00098, 0) translate(22.0009765625, 0)" style="text-anchor: middle;"><tspan fill="rgb(116, 116, 116)" style="font-family: Roboto; font-weight: 400; font-stretch: 100%; font-size: 12px;" x="0" dominant-baseline="auto" y="0">2005-06</tspan></text><text transform="translate(77.12234, 12) translate(-22.00098, 0) translate(22.0009765625, 0)" style="text-anchor: middle;"><tspan fill="rgb(116, 116, 116)" style="font-family: Roboto; font-weight: 400; font-stretch: 100%; font-size: 12px;" x="0" dominant-baseline="auto" y="0">2007-08</tspan></text><text transform="translate(144.59007, 12) translate(-22.00098, 0) translate(22.0009765625, 0)" style="text-anchor: middle;"><tspan fill="rgb(116, 116, 116)" style="font-family: Roboto; font-weight: 400; font-stretch: 100%; font-size: 12px;" x="0" dominant-baseline="auto" y="0">2009-10</tspan></text><text transform="translate(212.0578, 12) translate(-22.00098, 0) translate(22.0009765625, 0)" style="text-anchor: middle;"><tspan fill="rgb(116, 116, 116)" style="font-family: Roboto; font-weight: 400; font-stretch: 100%; font-size: 12px;" x="0" dominant-baseline="auto" y="0">2011-12</tspan></text><text transform="translate(279.52553, 12) translate(-22.00098, 0) translate(22.0009765625, 0)" style="text-anchor: middle;"><tspan fill="rgb(116, 116, 116)" style="font-family: Roboto; font-weight: 400; font-stretch: 100%; font-size: 12px;" x="0" dominant-baseline="auto" y="0">2013-14</tspan></text><text transform="translate(346.99327, 12) translate(-22.00098, 0) translate(22.0009765625, 0)" style="text-anchor: middle;"><tspan fill="rgb(116, 116, 116)" style="font-family: Roboto; font-weight: 400; font-stretch: 100%; font-size: 12px;" x="0" dominant-baseline="auto" y="0">2015-16</tspan></text><text transform="translate(414.461, 12) translate(-22.00098, 0) translate(22.0009765625, 0)" style="text-anchor: middle;"><tspan fill="rgb(116, 116, 116)" style="font-family: Roboto; font-weight: 400; font-stretch: 100%; font-size: 12px;" x="0" dominant-baseline="auto" y="0">2017-18</tspan></text><text transform="translate(481.92873, 12) translate(-22.00096, 0) translate(22.000961303710938, 0)" style="text-anchor: middle;"><tspan fill="rgb(116, 116, 116)" style="font-family: Roboto; font-weight: 400; font-stretch: 100%; font-size: 12px;" x="0" dominant-baseline="auto" y="0">2019-20</tspan></text><text transform="translate(549.39646, 12) translate(-22.00098, 0) translate(22.0009765625, 0)" style="text-anchor: middle;"><tspan fill="rgb(116, 116, 116)" style="font-family: Roboto; font-weight: 400; font-stretch: 100%; font-size: 12px;" x="0" dominant-baseline="auto" y="0">2021-22</tspan></text></g><g id="x-base-lines-svg grid-x-svg datawrapper-ySCjb-1io9s9d-svg"/><g id="y-tick-labels-svg grid-y-svg number-axis-svg datawrapper-ySCjb-yhj5g2-svg" transform="translate(-5, 0)"><text transform="translate(0, 221) translate(-7, 0) translate(7, 0)" style="text-anchor: end;"><tspan fill="rgb(162, 162, 162)" style="font-family: Roboto; font-weight: 400; font-stretch: 100%; font-size: 12px;" x="0" dominant-baseline="auto" y="0">0</tspan></text><text transform="translate(0, 164.04462) translate(-20.47656, 0) translate(20.4765625, 0)" style="text-anchor: end;"><tspan fill="rgb(162, 162, 162)" style="font-family: Roboto; font-weight: 400; font-stretch: 100%; font-size: 12px;" x="0" dominant-baseline="auto" y="0">100</tspan></text><text transform="translate(0, 107.08924) translate(-20.47656, 0) translate(20.4765625, 0)" style="text-anchor: end;"><tspan fill="rgb(162, 162, 162)" style="font-family: Roboto; font-weight: 400; font-stretch: 100%; font-size: 12px;" x="0" dominant-baseline="auto" y="0">200</tspan></text><text transform="translate(0, 50.13386) translate(-20.47656, 0) translate(20.4765625, 0)" style="text-anchor: end;"><tspan fill="rgb(162, 162, 162)" style="font-family: Roboto; font-weight: 400; font-stretch: 100%; font-size: 12px;" x="0" dominant-baseline="auto" y="0">300</tspan></text></g><g id="y-base-lines-svg grid-y-svg datawrapper-ySCjb-1io9s9d-svg"><line x1="559.0510692596436" x2="0" y1="0" y2="0" transform="translate(0, 217)" style="fill: none; stroke-width: 1; stroke-linejoin: miter; stroke-linecap: square; stroke: rgb(24, 24, 24);"/></g></g></g><rect width="14" height="14" transform="translate(0, 79)" fill="rgb(24,161,205)" id="all_visas" style="fill: rgb(24, 161, 205); opacity: 0.5;"/><text transform="translate(18, 79)" id="all_visas"><tspan fill="rgb(24,24,24)" x="0" y="12.828125" style="font-family: Roboto; font-weight: 400; font-stretch: 100%; font-size: 12px;">Applicants above age 29</tspan></text><rect width="14" height="14" transform="translate(156.78125, 79)" fill="rgb(0,82,122)" id="under_29" style="fill: rgb(0, 82, 122); opacity: 0.5;"/><text transform="translate(174.78125, 79)" id="under_29"><tspan fill="rgb(24,24,24)" x="0" y="12.828125" style="font-family: Roboto; font-weight: 400; font-stretch: 100%; font-size: 12px;">Under 29</tspan></text><g id="tooltip-layer-svg" clip-path="url(#rect-mask-d-jDRMkOg7ukDsTVafJzi)" transform="translate(0, 79)"><clipPath id="rect-mask-d-jDRMkOg7ukDsTVafJzi"><rect x="0" y="0" width="600" height="269"/></clipPath><g id="group-svg" transform="translate(26.47656, 27)"/></g></g><g id="above-footer-svg datawrapper-ySCjb-f9vec7-svg"><text transform="translate(0, 368)"><tspan fill="rgb(101,101,101)" x="0" y="12" style="font-family: Roboto; font-weight: 400; font-stretch: 100%; font-style: italic; font-size: 12px;">*Doctors who apply for a visa under the Resident Medical Officer occupation.</tspan></text></g><g id="footer-svg"><text transform="translate(0, 387)"><tspan fill="rgb(136,136,136)" x="0" y="11" style="font-family: Roboto; font-weight: 400; font-stretch: 100%; font-size: 11px;">Chart:</tspan><tspan fill="rgb(136,136,136)" dx="2.734375" style="font-family: Roboto; font-weight: 400; font-stretch: 100%; font-size: 11px;">Kelly Waldron</tspan><tspan fill="rgb(136,136,136)" dx="2.734375" style="font-family: Roboto; font-weight: 400; font-stretch: 100%; font-size: 11px;">•</tspan><tspan fill="rgb(136,136,136)" dx="2.734375" style="font-family: Roboto; font-weight: 400; font-stretch: 100%; font-size: 11px;">Source</tspan><tspan fill="rgb(136,136,136)" style="font-family: Roboto; font-weight: 400; font-stretch: 100%; font-size: 11px;">:</tspan><tspan fill="rgb(136,136,136)" dx="2.734375" style="font-family: Roboto; font-weight: 400; font-stretch: 100%; font-size: 11px;">Australian Government, Department of Home Affairs</tspan><tspan fill="rgb(136,136,136)" dx="2.734375" style="font-family: Roboto; font-weight: 400; font-stretch: 100%; font-size: 11px;">•</tspan><tspan fill="rgb(136,136,136)" dx="2.734375" style="font-family: Roboto; font-weight: 400; font-stretch: 100%; font-size: 11px;">Created with</tspan><tspan fill="rgb(136,136,136)" dx="2.734375" style="font-family: Roboto; font-weight: 400; font-stretch: 100%; font-size: 11px;">Datawrapper</tspan></text></g></g></g></g></svg>